<?xml version="1.0" encoding="UTF-8"?>
<svg id="Layer_2" data-name="Layer 2" xmlns="http://www.w3.org/2000/svg" viewBox="0 0 772.91 544.29">
  <defs>
    <style>
      .cls-1 {
        fill: #37a7fd;
      }
    </style>
  </defs>
  <g id="Layer_1-2" data-name="Layer 1">
    <path class="cls-1" d="m486.51,0h1c9.09,1.52,18.39,1.86,26.94,6.07,8.52,4.19,15.4,9.25,19.93,18.36,75.71,152.42,151.86,304.62,227.85,456.9,4.26,8.54,10.08,16.43,10.67,26.44v3c-.77,1.33-.77,2.67,0,4v4c-1.29,1.54-.9,3.49-1.22,5.25-2.03,11.24-11.59,19.87-22.5,20.23-50.63,0-101.24,0-151.84,0-3.62.33-5.84-1.58-7.56-4.56-26.02-45.21-52.21-90.32-78.27-135.51-8.21-14.24-15.61-29.01-25.19-42.38-10.19-14.23-24.36-22.18-41.86-23.97-6.05-1.39-12.16-1.51-18.33-1.51-84.39.02-168.77.08-253.15,0-3.11.08-4.8-1.94-6.16-4.32-17.34-30.27-34.89-60.43-52.31-90.65-17.59-30.51-35.25-60.98-52.82-91.5C42.63,116.72,22.66,84.09,4.7,50.39-3.53,34.94-1.71,14.09,16.31,2.91c2.17-1.35,4.59-1.88,7.14-1.91,147.32-.02,294.62.02,441.91-.02,2.36-.48,4.87.03,7.18-.98h2c3.99.82,7.98.82,11.97,0Z"/>
  </g>
</svg>