<?xml version="1.0" encoding="UTF-8"?>
<svg id="Layer_2" data-name="Layer 2" xmlns="http://www.w3.org/2000/svg" viewBox="0 0 785.43 152.72">
  <defs>
    <style>
      .cls-1 {
        fill: #fff;
      }

      .cls-2 {
        fill: #878787;
      }
    </style>
  </defs>
  <g id="Layer_1-2" data-name="Layer 1">
    <g>
      <path class="cls-2" d="m700.93,151.19c-27.29,0-54.57,0-81.86,0-.46,0-.92-.02-1.37,0q-1.95.09-1.95-1.92c.02-49.24.04-98.48.06-147.73,0-1.5,0-1.42,1.59-1.37,1.49.05,2.99-.15,4.49-.15,40.91,0,81.82-.04,122.73.04,5.31.01,10.55.83,15.64,2.69,4.31,1.57,8.12,3.75,11.46,6.85.54.5,1.32.75,1.83,1.27.71.73,1.24,1.64,1.89,2.42.98,1.18,2.11,2.26,3,3.51,2.22,3.09,3.62,6.6,5,10.13,1.55,3.96,1.86,8.12,1.88,12.24.12,36.95.1,73.9.12,110.86,0,.63.12,1.24-.89,1.24-8.79-.03-17.58-.02-26.37-.02-19.08,0-38.16,0-57.24,0v-.06Zm-28.31-62.45c-.03-.11-.05-.21-.08-.32.33-.22.63-.49.98-.65,2.19-1.04,3.94-2.63,5.43-4.5,2.77-3.47,3.61-7.4,2.33-11.61-2.06-6.8-7.5-9.6-13.9-10.45-6.35-.85-12.79-.59-19.16.39-1.15.18-1.65.54-1.65,1.87.06,18.37.05,36.73.06,55.1,0,.44,0,.89,0,1.35.78.12,1.39.3,2.01.31,5.32.1,10.65.39,15.96.18,4.7-.19,9.19-1.47,13.05-4.4,2.75-2.09,5.08-4.55,5.65-8.07.37-2.28.48-4.64.35-6.94-.17-2.99-1.47-5.59-3.6-7.75-2.09-2.13-4.32-4.02-7.43-4.49Zm48.14,40.06c-.54,1.36-1.09,2.84-1.71,4.29-.63,1.47-.58,1.89.94,2.48,1.89.74,3.82,1.61,5.8,1.84,3.66.42,7.38.62,11.07.52,6.75-.18,11.61-3.71,14.87-9.43,2.22-3.9,2.49-8.35,2.55-12.72.11-9.41,0-18.82.02-28.24,0-2.83.18-5.66.2-8.49,0-.39-.42-1.12-.67-1.13-2.02-.09-4.05-.05-6.25-.05v6.3c-.42-.48-.65-.66-.78-.9-1.99-3.75-5.52-5.4-9.31-6.33-4.98-1.23-9.61.31-13.7,3.12-3.62,2.49-5.87,6.1-7.42,10.24-2.48,6.6-2.33,13.16.75,19.36,3.26,6.57,8.87,10.15,16.33,10.27,4.76.08,8.66-2.01,11.85-5.49.37-.4.75-.79,1.13-1.18.13.06.27.11.4.17-.27,2.84-.45,5.7-.84,8.53-.4,2.94-1.59,5.53-4.14,7.24-4.55,3.06-9.49,3.5-14.64,1.92-2.13-.65-4.19-1.5-6.45-2.32Zm5.81-88.25c-.11-5.56-2.1-12.08-7.93-16.89-1.74-1.44-3.67-2.77-5.71-3.69-1.66-.75-3.61-.93-5.46-1.17-5.94-.78-11.61-.06-16.64,3.49-5.01,3.54-8.09,8.36-9.23,14.41-.67,3.54-.74,7.04-.28,10.65.79,6.11,3.47,11.08,8.21,14.88,4.85,3.9,10.55,5.27,16.64,4.49,7.07-.91,12.76-4.29,16.65-10.42,2.71-4.28,3.74-9.01,3.75-15.75Zm-79.95,13.56c2.33.16,4.48.3,6.63.46,5.35.39,10.53-.35,15.51-2.36.91-.37,1.81-.87,2.58-1.48,6.77-5.34,7.94-12.6,6.13-20.36-1.29-5.5-4.95-9.38-10.73-10.79-3.9-.96-7.86-1.31-11.87-1.16-2.2.08-4.39.3-6.59.41-1.65.08-1.66.04-1.66,1.67,0,10.37,0,20.73.01,31.1,0,.74,0,1.48,0,2.51Zm52.71,24.15c.05.66.09.98.09,1.3,0,4.16,0,8.33,0,12.49,0,8.87.02,17.74-.01,26.61,0,1.04.29,1.4,1.34,1.34,1.33-.08,2.67-.07,4,0,1.05.05,1.34-.34,1.34-1.38,0-11.78.05-23.57.09-35.35.01-3.33.03-6.66.04-9.99,0-1.55-.13-1.67-1.72-1.67-1.25,0-2.5-.03-3.75,0-.44.01-.92.11-1.31.31-2.69,1.38-5.32,2.86-8.04,4.19-2.13,1.05-2.17.97-1.79,3.26.03.16.02.33.04.5.29,2.69.82,2.92,3.21,1.63,2.06-1.12,4.2-2.11,6.48-3.24Z"/>
      <path class="cls-2" d="m337.5,79.77c-.94-.07-1.83-.18-2.72-.18-9.16,0-18.33-.02-27.49.03-1.43,0-2.12-.46-2.58-1.88-.93-2.88-2.13-5.66-3.19-8.49-1.24-3.34-2.44-6.69-3.68-10.03-1.13-3.03-2.32-6.05-3.42-9.09-1.8-4.95-3.57-9.91-5.33-14.88-.19-.54-.09-1.21-.35-1.69-.26-.47-.76-.9-1.25-1.11-.15-.06-.78.59-.94,1.01-.82,2.12-1.59,4.25-2.32,6.4-.6,1.75-1.1,3.53-1.68,5.29-.25.75-.66,1.44-.91,2.18-1.44,4.18-2.8,8.39-4.3,12.55-.99,2.75-2.23,5.4-3.25,8.14-1.2,3.22-2.29,6.48-3.41,9.73-.21.6-.14,1.5-.53,1.77-.45.3-1.28.05-1.94.05-9.08,0-18.16-.02-27.24-.02-.62,0-1.24.05-2.05.09.48-1.55.85-3.1,1.44-4.57,3.06-7.72,6.16-15.43,9.27-23.13,2.19-5.43,4.48-10.82,6.62-16.26,2.31-5.87,4.46-11.8,6.74-17.68,1.01-2.59,2.24-5.09,3.27-7.68,1.23-3.08,2.42-6.18,3.46-9.33.32-.97.8-.98,1.54-.98,8.96,0,17.91,0,26.87,0,1.67,0,3.33,0,5,0,1.61,0,2,.42,2.49,1.86.74,2.16,1.62,4.26,2.45,6.39,1.12,2.85,2.23,5.7,3.38,8.54,1.68,4.14,3.37,8.28,5.08,12.41,1.89,4.54,3.82,9.07,5.7,13.62,1.08,2.62,2.11,5.26,3.17,7.89,1.63,4.03,3.25,8.07,4.92,12.09,2.02,4.89,4.08,9.76,6.13,14.64.32.75.68,1.48,1.07,2.32Z"/>
      <path class="cls-2" d="m73.64,79.56c.27-.83.46-1.57.74-2.27,2.46-6.26,4.92-12.52,7.41-18.77,1.09-2.73,2.27-5.43,3.35-8.17.62-1.58,1.07-3.23,1.69-4.8.72-1.81,1.59-3.56,2.31-5.36,2.29-5.75,4.52-11.52,6.82-17.27,2.14-5.36,4.34-10.7,6.49-16.06.79-1.97,1.45-3.99,2.27-5.94.17-.4.81-.85,1.24-.85,10.79-.05,21.58-.03,32.37-.05,1.13,0,1.64.63,2.01,1.54,1.6,3.96,3.2,7.92,4.78,11.89,2.16,5.43,4.27,10.87,6.45,16.29,1.44,3.57,2.94,7.12,4.43,10.67,1.96,4.67,3.96,9.32,5.89,14.01,1.52,3.69,2.94,7.41,4.44,11.11,1.74,4.27,3.52,8.52,5.3,12.77.2.48.56.9.88,1.41h-32.39c-1.78-5-3.55-10.08-5.41-15.14-1.07-2.92-2.34-5.77-3.43-8.69-.83-2.22-1.44-4.51-2.26-6.73-1.3-3.54-2.73-7.02-4.04-10.56-.6-1.63-.98-3.34-1.57-4.98-.17-.47-.72-.81-1.09-1.21-.28.44-.59.86-.82,1.32-.33.66-.64,1.34-.9,2.04-1.31,3.58-2.63,7.15-3.89,10.74-1.14,3.23-2.16,6.51-3.34,9.72-1.77,4.81-3.69,9.56-5.45,14.38-.89,2.44-1.62,4.95-2.34,7.45-.34,1.18-1.07,1.55-2.22,1.55-5.79-.02-11.58-.01-17.37-.02-4.03,0-8.07,0-12.36,0Z"/>
      <path class="cls-2" d="m57.59,23.4c0,.67,0,1.2,0,1.74,0,17.66,0,35.32,0,52.98,0,1.56,0,1.49-1.59,1.49-10.04-.03-20.08-.04-30.11,0-1.18,0-1.77-.18-1.74-1.52.05-2.16-.08-4.32-.08-6.48,0-15.49,0-30.99,0-46.48,0-1.84,0-1.83-1.9-1.83-6.91,0-13.83-.02-20.74.03-1.1,0-1.4-.32-1.39-1.42.05-6.29.02-12.58.01-18.87,0-.29,0-.58-.01-.87Q-.05.02,2.07.02c25.62,0,51.23,0,76.85,0,1.69,0,1.68,0,1.68,1.7,0,6.71-.02,13.41.04,20.12.01,1.24-.37,1.51-1.55,1.5-6.83-.06-13.66-.03-20.49-.03-.28,0-.57.04-1.01.08Z"/>
      <path class="cls-2" d="m165.05.08c.34-.02.74-.05,1.15-.05C192.32.02,218.45.03,244.57,0c1.17,0,1.57.26,1.55,1.51-.07,6.71-.03,13.42-.03,20.12,0,1.61-.07,1.68-1.71,1.68-6.58,0-13.17,0-19.75,0-1.99,0-2.05.07-2.05,2.01,0,17.58,0,35.17,0,52.75,0,.49,0,.98,0,1.53h-32.77c0-.53,0-1.02,0-1.5,0-17.58,0-35.17,0-52.75,0-2-.04-2.04-2.03-2.04-7.08,0-14.17-.02-21.25.04-1.24.01-1.52-.39-1.51-1.57.06-6.21.03-12.42.03-18.62,0-.98,0-1.97,0-3.07Z"/>
      <path class="cls-2" d="m552.51,68.22c.78,3.15,1.55,6.28,2.29,9.26-2.62.68-4.87,1.4-7.18,1.85-3.29.64-6.51,1.77-9.94,1.54-.54-.04-1.09-.04-1.62,0-4.21.32-8.18-.56-12.2-1.83-4.03-1.27-7.42-3.36-10.36-6.22-3.02-2.93-5.35-6.51-6.32-10.58-1.36-5.7-2.16-11.54-.6-17.4.5-1.88.73-3.87,1.48-5.64.94-2.23,2.32-4.27,3.44-6.43,1.11-2.15,2.8-3.81,4.62-5.27,2.92-2.34,6.15-4.21,9.87-5.04,1.98-.44,3.97-.98,5.98-1.21,3.46-.4,6.74.66,10.05,1.51,2.7.7,5.06,2.09,6.97,3.88,2.74,2.57,4.98,5.6,6.49,9.19,1.89,4.49,2.37,9.1,2.28,13.87-.03,1.66,0,3.32,0,5.16-.7,0-1.23,0-1.75,0-11.91,0-23.83,0-35.74,0-1.65,0-1.85.13-1.56,1.8.53,3.09,1.56,5.91,3.76,8.35,3.08,3.43,6.92,4.81,11.33,4.96,2.95.1,5.91.05,8.86.06,3.35,0,6.59-.56,9.87-1.81Zm-7.88-23.04c.55-2.42.24-4.46-.58-6.54-1.04-2.64-2.54-4.88-4.96-6.33-4.3-2.58-8.82-2.6-12.96.12-2.11,1.39-3.86,3.53-5.32,5.64-1.02,1.47-1.31,3.46-1.87,5.23-.53,1.65-.35,1.88,1.4,1.88,7.4,0,14.81,0,22.21,0,.7,0,1.4,0,2.08,0Z"/>
      <path class="cls-2" d="m425.63,54.83c-.29,5.43,1.75,9.47,6.03,12.43,2.92,2.02,6.14,2.8,9.66,2.74,2.79-.05,5.58.13,8.36.07,3.34-.07,6.58-.75,9.57-1.94.71,3.08,1.41,6.16,2.12,9.29-1.36.43-2.86,1.01-4.41,1.37-2.87.67-5.74,1.4-8.65,1.76-2.67.33-5.39.19-8.09.28-4.95.16-9.7-1.22-13.84-3.47-6.29-3.42-10.81-8.66-12.63-15.96-1.32-5.32-1.53-10.63-.65-15.94.71-4.29,1.86-8.53,4.78-12.01,1.52-1.8,2.87-3.78,4.53-5.43,3.37-3.36,7.68-4.91,12.21-6.07,5.37-1.37,10.55-.61,15.51,1.37,5.26,2.1,8.98,6,11.32,11.18.58,1.28,1.35,2.48,1.83,3.79.35.96.33,2.04.56,3.05.94,4.15.77,8.35.54,12.55-.04.78-.43.97-1.13.96-1.62-.03-3.25,0-4.87,0-10.42,0-20.83,0-31.25,0-.45,0-.9,0-1.5,0Zm12.97-9.46s0-.09,0-.14c3.33,0,6.66.02,9.99,0,3.44-.02,3.37-.03,2.94-3.41-.48-3.83-2.2-6.91-5.26-9.2-2.05-1.54-4.47-2.13-7.03-2.16-3.33-.04-6.28,1.24-8.59,3.41-1.84,1.72-3.26,3.99-4.04,6.5-.37,1.18-.71,2.37-.99,3.57-.25,1.1.32,1.46,1.37,1.45,3.87-.03,7.74-.01,11.6-.01Z"/>
      <path class="cls-2" d="m355.29,11.82c0-3.46.01-6.75,0-10.03,0-.98.61-1.04,1.33-1.04,3.79,0,7.58-.01,11.37-.01,15.08,0,30.17,0,45.25-.05,1.12,0,1.43.34,1.4,1.42-.07,2.79-.08,5.58,0,8.37.03,1.15-.37,1.38-1.43,1.37-6.62-.05-13.25-.03-19.87-.03-1.7,0-1.74.03-1.74,1.76,0,21.33,0,42.67,0,64,0,1.83,0,1.8-1.83,1.8-3.25,0-6.5.04-9.75.06q-2.22.01-2.22-2.15c0-21.29,0-42.58,0-63.87q0-1.61-1.65-1.61c-6.46,0-12.92,0-19.37,0-.48,0-.97,0-1.48,0Z"/>
      <path class="cls-2" d="m491.69,40.16c0,12.67-.01,25.33.02,38,0,1.17-.29,1.38-1.5,1.34-3.53-.13-7.08-.06-10.62.02-1.69.04-1.82.01-1.82-1.63,0-25.33,0-50.67-.03-76,0-1.19.4-1.51,1.49-1.5,3.83.03,7.67.02,11.5-.02.8,0,1.04.34,1.02,1.04-.02,1.17-.05,2.33-.05,3.5,0,11.75,0,23.5,0,35.25h0Z"/>
      <path class="cls-2" d="m10.5,152.26c-3.05-.17-5.75-.33-8.45-.45-.69-.03-.97-.27-.97-.97.06-11.53.1-23.06.15-34.6.02-4.71.05-9.41.07-14.12,0-.53-.13-1.08.75-1.11,4.53-.15,9.06-.52,13.58-.45,2.7.04,5.48.3,8.02,1.48,5.97,2.77,8.29,7.24,7.16,13.47-.67,3.71-3.47,5.43-6.25,7.24-.52.34-1.14.54-1.6.95-.25.22-.33.74-.3,1.1.02.17.47.35.75.43,3.34,1.06,6.29,2.64,7.86,6,.48,1.01.9,2.05,1.3,3.1.97,2.49.51,4.91-.25,7.39-.99,3.22-2.83,5.73-5.76,7.33-1.32.72-2.85,1.05-4.28,1.55-.08.03-.18,0-.24.05-3.74,2.29-7.96.87-11.56,1.61Zm-3.64-15.11h.02c0,2.83,0,5.66,0,8.49,0,1.2.38,2.13,1.8,2.21,4.52.26,9.11.73,13.17-1.91,2.18-1.41,4.14-3.17,4.75-5.85.27-1.19.18-2.48.19-3.72.02-3.37-3.52-7.74-6.82-8.46-3.62-.79-7.26-1.29-10.98-1.11-1.77.08-2.11.33-2.12,2.12-.02,2.75,0,5.49,0,8.24Zm0-23.24c0,2.46.02,4.91,0,7.37-.01,1.16.48,1.68,1.65,1.66,1.83-.02,3.67.07,5.5.02,2.64-.07,5.21-.75,7.44-2.08,3.24-1.93,4.41-5.61,3.52-9.75-.67-3.12-3.26-5.61-6.84-6.02-3.04-.35-6.14-.24-9.22-.3-1.59-.03-2.02.41-2.03,1.98-.02,2.37,0,4.75,0,7.12Z"/>
      <path class="cls-2" d="m314.71,99.62c3.04.61,6.1,1.15,9.12,1.85,1.6.37,1.62.73.86,2.14-.26.47-.24,1.11-.29,1.68-.1,1.15-.56,1.48-1.6,1.01-3.7-1.67-7.63-1.75-11.53-1.35-3.35.34-6.12,2.28-6.89,6.33-.8,4.21.89,7.62,4.92,9.52,3.04,1.43,6.18,2.64,9.18,4.16,2.53,1.28,4.95,2.87,6.57,5.26,1.02,1.52,2.04,3.25,2.34,5.01,1.26,7.37-1.45,12.41-8.46,15.52-4.62,2.05-9.52,2.3-14.53,1.36-2.46-.46-4.67-1.41-6.91-2.37-.68-.29-.74-.59-.34-1.23.39-.63.74-1.36.86-2.08.25-1.52.51-1.75,1.93-1.03,2.7,1.38,5.57,2.11,8.56,2.48,3.76.46,7.22-.48,10.15-2.65,2.44-1.8,3.17-4.65,2.81-7.68-.11-.95-.16-1.93-.45-2.82-.23-.7-.7-1.42-1.26-1.9-3.18-2.75-6.8-4.68-10.8-6.05-2.71-.93-5.16-2.54-7.19-4.63-2.1-2.17-3.6-4.81-3.81-7.75-.14-2.01.54-4.21,1.34-6.12.65-1.56,1.94-2.88,3.08-4.19,2.31-2.68,5.61-3.22,8.83-3.84,1.14-.22,2.31-.24,3.47-.35.03-.09.05-.18.08-.27Z"/>
      <path class="cls-2" d="m68.65,145.91c-.75.55-1.41.88-1.87,1.39-2.56,2.88-5.63,4.76-9.53,5.16-5.53.57-10.16-1.85-12.23-7.1-1.65-4.19-2.35-8.63-2.22-13.18.13-4.7.16-9.41.22-14.11.01-.95,0-1.91,0-2.83,1.94,0,3.91-.02,5.87.04.16,0,.42.65.42.99,0,2.66-.1,5.33-.08,7.99.03,4.79.03,9.58.2,14.36.18,4.86,2.59,8.24,6.91,9.16,3.27.7,6.14-.46,8.49-2.84.44-.44.88-.89,1.27-1.38,1.13-1.42,1.91-2.94,1.9-4.87-.04-7.16.02-14.33.03-21.49,0-.69,0-1.39,0-2,1.85,0,3.75-.02,5.65.03.23,0,.52.4.65.68.11.24.02.57.02.86,0,8.54-.01,17.07.02,25.61.01,2.7.12,5.41.24,8.11.04.96-.24,1.38-1.26,1.31-1.04-.07-2.08-.05-3.12,0-.75.04-1.04-.29-1.1-1-.12-1.52-.29-3.04-.47-4.91Z"/>
      <path class="cls-2" d="m161.79,151.82c0-.69,0-1.22,0-1.75,0-7.37-.01-14.74.04-22.11.02-3.54-1.74-6.1-4.56-7.8-3.1-1.87-7.55-1.05-10.42,1.58-2.35,2.15-3.83,4.63-3.76,8.04.14,6.86,0,13.73.04,20.6,0,1.18-.34,1.56-1.49,1.47-1.16-.09-2.33-.07-3.5,0-.89.05-1.13-.28-1.13-1.14.04-4.75.03-9.49.03-14.24,0-5.91,0-11.83-.03-17.74,0-1.19-.15-2.38-.23-3.51,1.58,0,3.02-.05,4.45.05.22.01.54.65.58,1.02.15,1.19.14,2.41.3,3.6.06.43.39,1.18.59,1.18.46,0,1.02-.28,1.37-.62,1.13-1.1,1.99-2.57,3.29-3.36,3.31-2.02,6.77-3.74,10.88-2.12,2.28.89,4.66,1.45,6.25,3.59,1.93,2.59,3.31,5.38,3.36,8.66.12,7.86.19,15.73.28,23.59,0,.62-.11,1.06-.87,1.05-1.75-.02-3.49,0-5.48,0Z"/>
      <path class="cls-2" d="m513.76,134.61c-3.96,0-7.91.01-11.87-.01-.86,0-1.34.18-1.25,1.18.6,6.42,3.23,10.78,10.2,11.99,3.86.67,7.99.74,11.82-.84.88-.36,1.35-.18,1.5.74.13.77.3,1.56.3,2.33,0,.28-.4.72-.71.82-1.44.46-2.9.89-4.38,1.23-4.4,1.01-8.83.9-13.06-.52-4.47-1.5-7.83-4.44-9.68-8.94-1.57-3.82-2.33-7.72-1.4-11.81.48-2.1.98-4.22,1.76-6.22.93-2.4,2.53-4.37,4.41-6.18,2.71-2.61,6.21-3.18,9.58-4.09.91-.25,2.01-.09,2.95.16,1.87.51,3.74,1.11,5.52,1.87,1.81.77,3,2.18,4.19,3.85,2.17,3.06,2.83,6.51,3.65,9.97.08.32.13.65.15.98.23,2.99-.24,3.5-3.18,3.5-3.5,0-7,0-10.49,0Zm-2.57-4.27v-.15c3.04,0,6.07-.04,9.11.02,1.04.02,1.36-.41,1.17-1.34-.22-1.1-.32-2.26-.76-3.26-.69-1.58-1.31-3.39-2.51-4.52-3.59-3.41-9.19-3.26-12.68-.42-2.47,2.01-3.87,4.54-4.56,7.61-.41,1.8-.34,2.06,1.5,2.06,2.91,0,5.82,0,8.73,0Z"/>
      <path class="cls-2" d="m354.66,134.54c-3.79,0-7.58,0-11.37,0-1.69,0-1.8.03-1.65,1.74.29,3.35,1.18,6.62,3.85,8.76,1.69,1.35,3.94,2.44,6.06,2.72,3.42.45,6.97.62,10.41-.33.28-.08.56-.16.83-.26q1.86-.65,2.34,1.19c.09.36.15.74.29,1.08.24.63.05.85-.57,1.2-2.25,1.27-4.73,1.51-7.18,1.8-3.97.47-7.91.14-11.63-1.4-4.95-2.06-7.78-5.93-9.34-11-1.3-4.24-1.11-8.35.22-12.49.31-.95.51-1.94.92-2.84,2.16-4.78,5.28-8.48,10.78-9.52,1.3-.25,2.55-.72,3.84-.99.55-.12,1.19-.12,1.73.02,1.67.46,3.33.98,4.98,1.53,2.98,1,4.83,3.17,6.29,5.86,1.73,3.18,2.43,6.6,2.68,10.14.02.33,0,.67-.04,1-.2,1.74-.32,1.87-2.08,1.88-3.79.02-7.58,0-11.37,0,0-.04,0-.07,0-.11Zm-2.81-4.15s0-.08,0-.12c3.16,0,6.32,0,9.49,0,.82,0,1.16-.38.97-1.18-.38-1.63-.72-3.28-1.2-4.88-.64-2.16-1.88-3.66-4.06-4.69-3.39-1.61-7.93-1.16-10.72,1.33-1.31,1.17-2.41,2.63-3.36,4.12-.56.86-.59,2.04-.95,3.04-.73,2.03-.5,2.39,1.72,2.39,2.71,0,5.41,0,8.12,0Z"/>
      <path class="cls-2" d="m207.22,146.77c.14,1.03.35,2,.35,2.98,0,.35-.4.88-.75,1.04-3.21,1.44-6.67,1.72-10.11,1.76-3.81.05-7.56-.5-10.82-2.71-4.28-2.91-6.85-6.84-7.43-12.11-.4-3.61-.22-7.15.58-10.65.56-2.45,2.03-4.47,3.58-6.46,1.03-1.33,2.08-2.57,3.5-3.37,3.8-2.14,7.73-3.9,12.25-2.35,1.53.52,3.14.93,4.52,1.72,1.3.74,2.64,1.73,3.45,2.95,1.95,2.94,3.49,6.12,3.54,9.79.02,1.25.15,2.49.18,3.73.02,1.1-.44,1.56-1.67,1.55-7.62-.07-15.24-.06-22.87-.07-2.06,0-2.21.18-1.76,2.24.28,1.3.64,2.58.96,3.87.87,3.57,6.76,7.39,9.91,7.33,4.03-.08,8.08.27,11.96-1.24.17-.07.4,0,.61,0Zm-13.04-16.33c0-.06,0-.13,0-.19,2.99,0,5.99.01,8.98,0,1.31,0,1.53-.29,1.31-1.59-.13-.78-.3-1.55-.45-2.32-.6-3.11-1.94-5.68-5.06-6.97-4.24-1.75-8.23-.83-11.37,2.14-.72.68-1.48,1.41-1.89,2.28-.71,1.49-1.17,3.1-1.72,4.66-.62,1.75-.45,1.99,1.47,1.99,2.91.01,5.82,0,8.73,0Z"/>
      <path class="cls-2" d="m584.69,151.87c0-6.01,0-11.8,0-17.59.04-44.11.09-88.21.15-132.32,0-.77-.54-1.99,1.11-1.93,1.43.04,1.89.5,1.89,2.13.02,32.57.04,65.14.07,97.71.01,14.87.03,29.74.05,44.61,0,2.08,0,4.17.12,6.24.05.9-.2,1.22-1.09,1.16-.69-.05-1.39-.01-2.29-.01Z"/>
      <path class="cls-2" d="m419.02,145.68c.65-1.71,1.33-3.41,1.94-5.14,1.24-3.51,2.44-7.03,3.65-10.56.5-1.45.98-2.9,1.48-4.35.83-2.44,1.7-4.86,2.5-7.31,1.03-3.14,1.01-3.14,4.32-3.12.87,0,1.73,0,2.78,0-.51,1.49-.95,2.85-1.45,4.18-1.6,4.26-3.18,8.52-4.84,12.75-.83,2.12-1.85,4.16-2.74,6.26-.46,1.07-.82,2.17-1.24,3.25-1.26,3.25-2.51,6.5-3.8,9.74-.09.22-.49.44-.75.45-1.87.04-3.74.02-5.41.02-4.67-12.27-9.29-24.4-13.95-36.65,2.14,0,3.95-.07,5.75.05.41.03.95.65,1.12,1.11.42,1.11.58,2.32.97,3.44,1.72,4.97,3.49,9.93,5.24,14.89,1.16,3.28,2.3,6.57,3.46,9.85.13.37.33.71.51,1.06.16.02.31.04.47.06Z"/>
      <path class="cls-2" d="m487.3,120.69c-3.34-1.17-6.66-2.23-10.19-1.17-1.69.51-3.44,1.05-4.92,1.97-3.51,2.18-5.31,5.5-5.54,9.62-.1,1.91-.23,3.84-.08,5.73.34,4.06,2.47,7.03,5.94,9.12,4.91,2.96,9.86,2.61,14.9.39.37,1.09.81,2.24,1.1,3.42.07.29-.32.94-.62,1.04-1.36.48-2.77.82-4.16,1.2-4.12,1.13-8.3.83-12.18-.52-3.36-1.17-6.47-3.09-8.34-6.54-1.55-2.85-2.78-5.76-3.2-8.97-.41-3.12.26-6.18,1.32-9.04.8-2.18,2.14-4.22,3.56-6.09,2.44-3.22,5.94-4.81,9.82-5.63,1.18-.25,2.35-.62,3.54-.71,3.42-.26,6.67.6,9.86,1.72.23.08.51.62.45.85-.37,1.25-.84,2.46-1.25,3.61Z"/>
      <path class="cls-2" d="m534.85,150.22c.32-1.29.6-2.58.98-3.83.06-.18.77-.4.95-.27,3.23,2.19,6.85,2.04,10.49,1.85,3.22-.17,5.16-3.14,4.79-6.45-.38-3.42-3.09-4.52-5.53-5.87-2.03-1.12-4.25-1.9-6.22-3.1-2.18-1.32-3.94-3.16-4.41-5.79-.35-1.97-.15-3.88.66-5.84,1.43-3.48,4.22-4.88,7.53-5.75,1.08-.28,2.17-1.04,3.19-.94,2.37.24,4.7.87,7.05,1.35.28.06.54.22.82.3,1.65.45,1.8.73,1.19,2.35-.32.85-.66,1.68-.89,2.29-2.3-.61-4.5-1.24-6.72-1.77-2.26-.54-4.34.34-5.92,1.68-.94.8-1.24,2.54-1.47,3.92-.23,1.41.35,2.69,1.69,3.49,1.46.87,2.88,1.81,4.37,2.62,2.29,1.24,4.7,2.29,6.94,3.62,3.34,1.97,3.94,5.27,3.67,8.76-.11,1.45-.37,3.1-1.17,4.23-.98,1.4-2.45,2.61-3.96,3.46-3.99,2.24-8.3,2.61-12.73,1.51-.68-.17-1.41-.18-2.08-.38-.54-.16-1.03-.49-1.56-.73-.55-.25-1.12-.48-1.66-.71Z"/>
      <path class="cls-2" d="m238.48,120.81c-.94-.41-1.79-.79-2.65-1.17-1.88-.83-3.85-1.11-5.86-.8-4.18.65-6.04,2.58-5.3,6.79.14.8.78,1.75,1.46,2.19,1.95,1.24,4.06,2.22,6.08,3.36,2.09,1.18,4.44,2.1,6.17,3.69,3.35,3.1,3.73,8.07,1.47,12.03-1.77,3.11-4.67,4.36-7.94,5.2-3.86.98-7.6.16-11.34-.58-.86-.17-1.65-.71-2.44-1.14-.14-.07-.22-.46-.16-.65.36-1.22.77-2.43,1.15-3.58.22-.04.33-.09.37-.06,3.5,2.37,7.48,2.11,11.35,1.8,2.92-.23,4.93-3.01,4.62-6.24-.23-2.42-1.65-4-3.79-5.01-2.5-1.19-5.05-2.29-7.49-3.61-1.18-.64-2.21-1.62-3.19-2.57-2.58-2.5-2.88-5.75-1.82-8.8.71-2.05,2.05-4.24,4.41-5.17,1.89-.74,3.8-1.42,5.73-2.03,2.83-.89,5.37.56,8.02,1.1.24.05.46.2.69.28,1.83.63,1.85.66,1.28,2.5-.25.79-.52,1.57-.81,2.45Z"/>
      <path class="cls-2" d="m250.27,145.77c3.67,2.69,7.66,2.29,11.53,2.42,1.92.06,4.79-2.81,4.96-4.78.22-2.66-.44-4.89-2.99-6.19-1.66-.85-3.35-1.62-5.01-2.47-2.43-1.25-4.97-2.32-6.8-4.49-2.72-3.24-2.52-7.51-.05-10.95,2.62-3.66,6.47-4.52,10.37-4.96,2.06-.23,4.27.8,6.4,1.28.36.08.68.35,1.04.41,1.11.18,1.38.73.87,1.72-.09.18-.15.39-.18.6-.41,2.43-.42,2.46-2.73,1.45-3.13-1.38-6.25-1.66-9.35.04-2.63,1.44-3.39,5.05-1.64,7.85.16.26.48.48.77.61,2.18,1.01,4.4,1.93,6.54,3.01,1.78.89,3.59,1.78,5.18,2.96,2.72,2.01,3.99,6.77,2.9,9.95-.11.31-.24.62-.33.94-.57,2.01-1.62,3.43-3.47,4.72-3.01,2.11-6.29,2.65-9.67,2.63-2.79-.01-5.63-.41-8.24-1.67-.78-.37-1-.83-.76-1.68.29-1.02.41-2.08.66-3.4Z"/>
      <path class="cls-2" d="m105.05,120.58c-.98-.39-1.93-.78-2.9-1.14-2.94-1.09-5.85-1.16-8.66.41-1.46.82-1.93,2.21-2.02,3.77-.05.83-.16,1.7.02,2.48.25,1.02.41,1.99,1.77,2.55,3.22,1.32,6.36,2.88,9.39,4.58,2.36,1.32,4.41,3.19,4.78,6.06.33,2.53.64,5.17-.72,7.56-.46.81-1.04,1.63-1.76,2.22-4.43,3.6-9.54,4.01-14.91,2.95-1.29-.26-2.56-.64-3.83-.96-1.38-.35-1.43-1.37-1.13-2.45.22-.78.61-1.52.97-2.4.54.26,1.02.47,1.49.7,3.27,1.58,6.77,1.26,10.19,1.02,2.88-.2,5.03-3.89,4.38-6.75-.44-1.96-1.31-3.44-3.26-4.23-1.75-.72-3.53-1.44-5.16-2.41-2.5-1.48-5.39-2.41-6.99-5.21-1.55-2.72-1.26-8.05.81-10.38,1.46-1.65,3.18-2.91,5.34-3.5,1.08-.29,2.13-.75,3.23-.93,1.04-.17,2.17-.28,3.18-.06,2.3.49,4.57,1.17,6.83,1.84.18.05.38.65.3.9-.37,1.09-.84,2.15-1.35,3.39Z"/>
      <path class="cls-2" d="m383.65,151.85c-1.63,0-3.14-.06-4.63.02-1.04.06-1.28-.37-1.27-1.3.03-4.54.01-9.08.01-13.62,0-6.79,0-13.57,0-20.36,0-.49,0-.98,0-1.52h4.86c.2,2.44.41,4.92.62,7.4.16.02.32.05.48.07.84-1.19,1.89-2.3,2.46-3.61.88-2.02,2.6-2.84,4.38-3.63,1.09-.49,2.25-.86,3.42-1.1,1.38-.27,1.64.01,1.66,1.39.02,1.08-.06,2.17.02,3.25.08,1.01-.29,1.36-1.28,1.25-2.49-.28-4.53.89-6.46,2.21-1.98,1.36-2.48,3.66-3.26,5.74-1.23,3.28-.93,6.72-.91,10.13.02,4.25.04,8.49.06,12.74,0,.28-.09.56-.15.94Z"/>
      <path class="cls-2" d="m118.16,115.15h6.22c0,.44,0,.86,0,1.29,0,11.32-.02,22.63.01,33.95,0,1.09-.33,1.5-1.43,1.44-1.33-.07-2.66-.04-3.99,0-.68.02-.96-.19-.96-.92.03-11.82.03-23.63.04-35.45,0-.08.05-.15.11-.31Z"/>
      <path class="cls-2" d="m443.76,115.03c1.91,0,3.61.03,5.3-.01.72-.02.85.34.84.92-.02,1.12-.05,2.25-.05,3.37-.02,10.45-.04,20.91-.02,31.36,0,.92-.2,1.28-1.17,1.21-1.24-.08-2.5-.06-3.75,0-.89.04-1.21-.34-1.15-1.18.02-.25,0-.5,0-.75,0-11.12,0-22.24,0-33.36,0-.49,0-.99,0-1.55Z"/>
      <path class="cls-2" d="m447.22,100.87c2.36.06,3.36,1.18,3.28,3.67-.07,2.29-1.44,3.45-3.95,3.36-1.61-.06-3.67-2.03-3.65-3.49.02-1.95,2.05-3.6,4.32-3.54Z"/>
      <path class="cls-2" d="m124.62,104.46c0,2.47-.99,3.44-3.5,3.42-2.4-.02-3.41-1.09-3.39-3.57.02-2.34,1.15-3.39,3.61-3.38,2.33,0,3.28,1.04,3.27,3.53Z"/>
      <path class="cls-1" d="m672.62,88.73c3.11.47,5.34,2.36,7.43,4.49,2.13,2.16,3.42,4.76,3.6,7.75.13,2.3.02,4.67-.35,6.94-.57,3.53-2.9,5.99-5.65,8.07-3.85,2.93-8.35,4.21-13.05,4.4-5.31.21-10.64-.08-15.96-.18-.62-.01-1.23-.18-2.01-.31,0-.46,0-.9,0-1.35,0-18.37,0-36.73-.06-55.1,0-1.33.5-1.69,1.65-1.87,6.37-.99,12.81-1.24,19.16-.39,6.4.86,11.84,3.66,13.9,10.45,1.28,4.21.44,8.15-2.33,11.61-1.5,1.87-3.24,3.46-5.43,4.5-.35.17-.66.43-.98.65.03.11.05.21.08.32Zm-17.91,3.21c0,7.21-.01,14.24.04,21.27,0,.3.56.85.88.87,4.41.23,8.87.53,13.06-1.23,4.38-1.84,7.02-4.42,6.87-9.92-.14-4.84-2.02-7.18-6.75-9.42-4.44-2.1-9.19-1.49-14.09-1.57Zm.09-6.16c4.9.11,9.64.48,14.09-1.8,1.91-.98,3.42-2.34,4.14-4.29,1.57-4.24.51-9.67-5.22-11.76-4.28-1.56-8.61-.74-13-.98v18.83Z"/>
      <path class="cls-1" d="m720.76,128.79c2.26.82,4.32,1.67,6.45,2.32,5.15,1.58,10.1,1.14,14.64-1.92,2.55-1.71,3.74-4.31,4.14-7.24.38-2.83.57-5.68.84-8.53-.13-.06-.27-.11-.4-.17-.38.39-.76.78-1.13,1.18-3.19,3.48-7.09,5.57-11.85,5.49-7.46-.13-13.07-3.7-16.33-10.27-3.07-6.2-3.23-12.76-.75-19.36,1.55-4.13,3.8-7.75,7.42-10.24,4.09-2.81,8.71-4.35,13.7-3.12,3.79.93,7.32,2.59,9.31,6.33.13.24.36.42.78.9v-6.3c2.2,0,4.23-.04,6.25.05.25.01.67.74.67,1.13-.02,2.83-.19,5.66-.2,8.49-.02,9.41.09,18.83-.02,28.24-.05,4.37-.32,8.81-2.55,12.72-3.25,5.72-8.12,9.25-14.87,9.43-3.68.1-7.4-.11-11.07-.52-1.98-.22-3.91-1.1-5.8-1.84-1.52-.59-1.57-1.01-.94-2.48.62-1.45,1.17-2.92,1.71-4.29Zm25.73-30.52c-.11-1.84-.11-3.68-.35-5.49-.69-5.07-4.1-9.34-9.92-9.56-4.11-.16-7.51,1.05-9.99,4.67-2.32,3.38-3.24,7.18-3.33,11.05-.06,2.47.9,5.06,1.8,7.45,1.97,5.22,6.9,7.88,12.37,6.97,4.94-.83,8.84-4.41,9.1-9.73.09-1.79.21-3.57.32-5.35Z"/>
      <path class="cls-1" d="m726.57,40.54c0,6.74-1.04,11.47-3.75,15.75-3.88,6.13-9.57,9.51-16.65,10.42-6.09.78-11.79-.59-16.64-4.49-4.74-3.81-7.42-8.77-8.21-14.88-.46-3.61-.39-7.11.28-10.65,1.14-6.05,4.22-10.87,9.23-14.41,5.02-3.55,10.7-4.27,16.64-3.49,1.85.24,3.8.42,5.46,1.17,2.05.92,3.97,2.25,5.71,3.69,5.83,4.81,7.82,11.33,7.93,16.89Zm-9.36,2.78c-.14-3.14-.34-6.26-1.59-9.25-1.79-4.29-4.36-7.67-9.16-8.67-3.5-.73-6.79-.24-9.83,1.88-3.13,2.18-4.76,5.34-5.75,8.8-.68,2.4-1.1,5.01-.98,7.49.16,3.25,1,6.43,2.61,9.39,2.26,4.18,5.64,6.58,10.37,6.91,5.25.37,8.98-2.3,11.72-6.44,2-3.01,2.74-6.47,2.61-10.11Z"/>
      <path class="cls-1" d="m646.62,54.1c0-1.02,0-1.77,0-2.51,0-10.37,0-20.73-.01-31.1,0-1.64,0-1.6,1.66-1.67,2.2-.1,4.39-.33,6.59-.41,4-.15,7.96.2,11.87,1.16,5.78,1.42,9.45,5.29,10.73,10.79,1.81,7.75.64,15.01-6.13,20.36-.77.61-1.67,1.11-2.58,1.48-4.98,2.01-10.16,2.75-15.51,2.36-2.15-.16-4.3-.3-6.63-.46Zm8.66-17.81s-.07,0-.1,0c0,3.37.02,6.75-.01,10.12-.01,1.04.3,1.57,1.43,1.43,1.03-.12,2.07-.15,3.1-.26,3.72-.39,6.64-1.97,8.22-5.56,1.36-3.1,1.7-6.26.88-9.58-.83-3.36-3.76-6.89-7.82-7.22-1.45-.12-2.9-.1-4.35-.22-1.01-.08-1.39.24-1.37,1.31.06,3.33.02,6.66.02,9.99Z"/>
      <path class="cls-1" d="m699.33,78.25c-2.28,1.13-4.41,2.12-6.48,3.24-2.39,1.29-2.92,1.06-3.21-1.63-.02-.17-.01-.33-.04-.5-.38-2.29-.34-2.22,1.79-3.26,2.71-1.33,5.35-2.81,8.04-4.19.39-.2.87-.29,1.31-.31,1.25-.04,2.5,0,3.75,0,1.6,0,1.73.12,1.72,1.67,0,3.33-.03,6.66-.04,9.99-.04,11.78-.09,23.57-.09,35.35,0,1.03-.28,1.43-1.34,1.38-1.33-.07-2.67-.08-4,0-1.05.06-1.34-.3-1.34-1.34.03-8.87.01-17.74.01-26.61,0-4.16,0-8.33,0-12.49,0-.32-.04-.64-.09-1.3Z"/>
      <path class="cls-2" d="m654.71,91.95c4.9.08,9.65-.53,14.09,1.57,4.73,2.23,6.61,4.58,6.75,9.42.16,5.49-2.49,8.07-6.87,9.92-4.19,1.76-8.65,1.47-13.06,1.23-.32-.02-.87-.56-.88-.87-.05-7.03-.04-14.06-.04-21.27Z"/>
      <path class="cls-2" d="m654.8,85.79v-18.83c4.4.24,8.72-.58,13,.98,5.73,2.08,6.79,7.51,5.22,11.76-.72,1.95-2.22,3.31-4.14,4.29-4.45,2.28-9.19,1.91-14.09,1.8Z"/>
      <path class="cls-2" d="m746.49,98.27c-.11,1.78-.24,3.57-.32,5.35-.26,5.32-4.16,8.9-9.1,9.73-5.47.91-10.4-1.75-12.37-6.97-.9-2.39-1.87-4.97-1.8-7.45.1-3.87,1.02-7.67,3.33-11.05,2.48-3.61,5.89-4.83,9.99-4.67,5.82.22,9.23,4.49,9.92,9.56.24,1.81.24,3.65.35,5.49Z"/>
      <path class="cls-2" d="m717.21,43.32c.13,3.63-.62,7.09-2.61,10.11-2.74,4.14-6.47,6.81-11.72,6.44-4.73-.33-8.1-2.73-10.37-6.91-1.6-2.96-2.45-6.14-2.61-9.39-.12-2.48.29-5.08.98-7.49.98-3.46,2.61-6.61,5.75-8.8,3.04-2.12,6.33-2.62,9.83-1.88,4.8,1,7.37,4.39,9.16,8.67,1.25,3,1.45,6.11,1.59,9.25Z"/>
      <path class="cls-2" d="m655.27,36.29c0-3.33.04-6.66-.02-9.99-.02-1.07.36-1.39,1.37-1.31,1.45.11,2.9.1,4.35.22,4.06.33,6.99,3.87,7.82,7.22.82,3.32.48,6.48-.88,9.58-1.57,3.6-4.49,5.17-8.22,5.56-1.03.11-2.07.14-3.1.26-1.13.14-1.44-.39-1.43-1.43.04-3.37.01-6.74.01-10.12.03,0,.07,0,.1,0Z"/>
    </g>
  </g>
</svg>