<?xml version="1.0" encoding="UTF-8"?>
<svg id="Layer_2" data-name="Layer 2" xmlns="http://www.w3.org/2000/svg" viewBox="0 0 607.83 202.04">
  <defs>
    <style>
      .cls-1 {
        fill: #878787;
      }
    </style>
  </defs>
  <g id="Layer_1-2" data-name="Layer 1">
    <g>
      <path class="cls-1" d="m140.12,0c33.81.36,57.06,16.44,64.78,45.95,4.54,17.35,1.46,34.28-5.05,50.73-13.32,33.62-38.25,57.31-66.71,77.92-15.85,11.48-32.31,21.77-51.8,26.34-23.31,5.46-38.93-9.84-31.27-32.56,3.72-11.02,10.33-21.6,17.71-30.69,6.95-8.57,17.4-11.99,28.85-7.88,9.62,3.45,12.11,10.08,5.87,18.12-5.12,6.6-11.63,12.11-17.19,18.4-4.8,5.42-9.55,10.98-13.5,17.02-1.53,2.34-2.16,7.32-.73,8.98,1.59,1.85,6.49,2.56,9.07,1.54,8.73-3.45,17.63-7.02,25.46-12.09,25.56-16.58,48.66-36.02,63.74-63.1,7.59-13.63,12.16-28.26,5.64-44.01-5.13-12.38-14.2-17.98-26.65-12.85-17.09,7.06-33.76,15.56-49.58,25.15-17.37,10.53-33.19,23.59-50.46,34.29-6.71,4.16-15.63,7.01-23.41,6.73-19.13-.69-29.43-18.67-22.93-37.81,6.55-19.31,20.34-33.39,35.45-45.86C63.33,22.9,92.39,7.19,125.99,1.27c4.64-.82,9.42-.87,14.13-1.27Z"/>
      <path class="cls-1" d="m289.86,104.67c1.31-13.8-2.36-18.26-14.6-17.02-7.27.74-14.34,3.44-22.13,5.41-1.67-3.7-3.58-7.94-5.64-12.5,15.19-8.78,30.47-12.91,46.95-7.61,12.42,4,19,13.43,19.2,26.54.24,15.95.14,31.91.04,47.87-.01,2.09-.31,4.65-1.51,6.17-11.23,14.21-47.12,16.25-60.86,3.71-9.92-9.06-12.56-20.19-8.71-32.67,3.62-11.75,14.59-19.19,28.29-19.86,6.11-.3,12.25-.05,18.95-.05Zm.66,15.11c-4.38,0-7.51-.36-10.53.06-12.47,1.74-18.28,12.21-12.91,23.28,3.21,6.61,9.06,7.61,15.66,6.7,6.61-.92,8.49-4.75,7.9-11.1-.56-6.06-.12-12.21-.12-18.94Z"/>
      <path class="cls-1" d="m554.82,121.09h-48.85c-1.18,9.92-.81,19.47,7.47,25.22,12.29,8.52,23.94,1.72,35.67-4.06,2.17,4.26,4.44,8.72,6.81,13.36-12.65,7.83-25.79,12.55-40.56,10.3-25.38-3.87-33.36-25.27-33.61-43.47-.12-9,1.41-18.43,4.28-26.97,6.99-20.84,29.9-30.24,49.84-20.9,4.31,2.02,8.41,5.71,11.15,9.64,7.48,10.75,8.36,23.19,7.8,36.88Zm-47.58-15.38h23.59c-.39-11.43-4.18-16.66-11.58-16.58-7.82.09-11.89,5.65-12.01,16.58Z"/>
      <path class="cls-1" d="m458.39,47.24v24.89c5.17.27,9.76.52,14.72.78v16.19h-14.68c0,17.92-.83,35,.58,51.9.35,4.24,7.89,7.87,12.13,11.78.66-.59,1.31-1.19,1.97-1.78v14.59c-7.62-.85-14.87-.94-21.74-2.6-9.63-2.32-15.38-9.27-16.07-19.09-.87-12.26-.82-24.6-.92-36.91-.13-16.25.27-32.51-.18-48.75-.17-6.3,2.6-8.46,8.07-9.04,4.97-.53,9.93-1.2,16.13-1.95Z"/>
      <path class="cls-1" d="m569.63,50.95c7.97-1.39,15.2-2.65,23.37-4.08v53.96c0,10.35,0,20.71,0,31.06q0,15.46,14.82,19.14v12.23c-21.07,7.25-37.92-3.87-38.13-25.41-.27-28.53-.07-57.06-.07-86.9Z"/>
      <path class="cls-1" d="m428.04,73.27c-2.75,9.06-5.31,15.6-16.92,14.6-11.6-.99-14.79,3.82-14.77,15.54.03,20.13,0,40.25,0,60.91h-23.38c0-4.54,0-9.19,0-13.83,0-18.5-.33-37.01.26-55.48.13-4.06,2.52-9.36,5.65-11.79,14.41-11.19,30.68-15.42,49.16-9.94Z"/>
      <path class="cls-1" d="m330.91,76.36c7.73-1.32,15-2.57,22.88-3.91v92.36c-6.16,0-12.5.44-18.69-.3-1.62-.2-3.98-4.07-4.01-6.27-.28-26.82-.18-53.65-.18-81.87Z"/>
      <path class="cls-1" d="m357.41,50.77c-.15,7.97-7.45,15.07-15.12,14.7-7.31-.35-13.93-7.58-13.9-15.17.03-8.6,6.11-14.59,14.82-14.6,8.4-.01,14.36,6.31,14.2,15.07Z"/>
    </g>
  </g>
</svg>