<?xml version="1.0" encoding="UTF-8"?>
<svg id="Layer_2" data-name="Layer 2" xmlns="http://www.w3.org/2000/svg" viewBox="0 0 800.38 164.68">
  <defs>
    <style>
      .cls-1 {
        fill: #878787;
      }
    </style>
  </defs>
  <g id="Layer_1-2" data-name="Layer 1">
    <g>
      <path class="cls-1" d="m.1,52.53C-1.64,28.22,19.17.07,52.36,0c32.1-.07,53.17,23.82,53.72,51.8.59,30.14-22.79,53.09-53.19,53.44C25.11,105.55-1.19,82.39.1,52.53Z"/>
      <path class="cls-1" d="m786.99,82.38c0-26.36,0-51.96-.02-77.55,0-1.44.26-2.42,2-2.4,3.73.04,7.47.01,11.42.01v102.46c-4.04,0-8.05.11-12.05-.09-.79-.04-1.64-1.18-2.26-1.96-14.78-18.54-29.57-37.08-44.28-55.68-4.68-5.92-9.17-11.99-13.71-18.03-.54-.72-.82-1.65-1.22-2.48-.4.3-.79.61-1.19.91v77.5h-13.52c0-1.83,0-3.44,0-5.05,0-31.39.03-62.78-.07-94.17,0-2.79.7-3.38,3.57-3.73,6.25-.76,9.7,2.05,13.29,6.74,15.11,19.73,30.67,39.13,46.05,58.65,3.08,3.9,6.11,7.84,9.19,11.74.74.94,1.59,1.8,2.78,3.14Z"/>
      <path class="cls-1" d="m531.26,105.17c0-14.76-.07-28.88.06-43.01.03-2.75-.48-3.75-3.55-3.72-16.67.15-33.34.11-50.01,0-2.47-.02-3.2.67-3.18,3.15.13,13.73.07,27.45.07,41.18,0,.6-.06,1.2-.11,2.09h-13.83V2.27c4.13,0,8.15-.14,12.16.14.66.04,1.7,1.87,1.71,2.88.1,12.49.08,24.98.02,37.46-.02,4.21-.1,4.15,4.28,4.15,16.36-.02,32.72-.06,49.08.05,2.57.02,3.39-.62,3.36-3.27-.16-12.69-.05-25.39-.15-38.08-.02-2.45.55-3.59,3.3-3.39,3.31.23,6.65.05,10.42.05.14,1.83.39,3.52.39,5.21,0,30.45-.02,60.89-.07,91.34-.01,6.6-.07,6.58-6.77,6.37-2.27-.07-4.55-.01-7.18-.01Z"/>
      <path class="cls-1" d="m346.4,80.44c1.35.91,2.76,1.82,4.13,2.8,11.07,7.85,23.4,11.53,37,10.7,4.83-.3,9.49-1.49,13.43-4.48,7-5.32,7.4-16.41.17-21.36-4.33-2.97-9.64-4.7-14.71-6.38-7.78-2.57-15.75-4.58-23.62-6.9-1.69-.5-3.29-1.28-4.93-1.94-18.4-7.42-16.5-34.1-1.89-43.85,6.41-4.28,13.36-6.55,20.99-7.11,13.21-.98,25.42,1.69,36.38,9.38,2.29,1.61,2.67,3.12,1.17,5.37-1.26,1.89-2.4,3.86-3.55,5.82-.78,1.32-1.53,1.74-2.92.57-10.42-8.78-22.53-11-35.65-8.53-8.93,1.68-14.12,7.95-14.02,16.39.08,7,5.08,10.17,10.63,12.28,5.51,2.09,11.35,3.31,17.04,4.95,6.28,1.82,12.81,3.09,18.76,5.66,17.44,7.54,21.48,30.4,7.78,42.95-6.04,5.53-13.61,7.84-21.6,8.79-17.87,2.12-34-2.51-48.73-12.53-1.62-1.1-1.74-1.94-.85-3.48,1.65-2.83,3.16-5.74,5-9.11Z"/>
      <path class="cls-1" d="m675.15,105.04c-4.68,0-8.91.04-13.15-.06-.47-.01-1.13-.77-1.34-1.32-3.39-8.64-6.79-17.27-9.99-25.97-.7-1.9-1.58-2.51-3.56-2.5-13.23.08-26.46.08-39.69,0-2.01-.01-2.99.69-3.65,2.51-2.95,8.14-6.08,16.21-8.99,24.37-.87,2.43-2.16,3.43-4.82,3.25-3.41-.23-6.86-.06-10.76-.06,2.09-5.14,3.95-9.76,5.85-14.37,11.38-27.54,22.99-54.98,33.97-82.68,1.99-5.03,4.26-6,9.24-6.17,4.38-.15,5.38,2.02,6.56,4.9,10.21,24.9,20.39,49.81,30.61,74.7,2.9,7.06,5.92,14.06,8.88,21.1.27.64.48,1.31.84,2.29Zm-29.66-40.45c-6.04-15.56-11.9-30.67-17.77-45.78-.35-.02-.69-.04-1.04-.07-5.78,15.17-11.56,30.34-17.47,45.85h36.28Z"/>
      <path class="cls-1" d="m297.48,105.18h-13.22c0-2.35,0-4.38,0-6.41,0-30.96.04-61.93-.03-92.89,0-2.75.61-3.97,3.66-3.69,3.08.29,6.21.06,9.58.06v102.92Z"/>
      <path class="cls-1" d="m602.63,164.68c-7.24-6.77-12.37-14.28-17.85-22.14-.08,1.05-.19,1.78-.18,2.51.06,5.57.2,11.14.14,16.7,0,.71-1.03,1.4-1.58,2.1-.52-.63-1.5-1.25-1.51-1.89-.1-8.13-.07-16.26-.07-24.39.29-.19.57-.37.86-.56,1.01.8,2.19,1.46,2.99,2.43,4.37,5.25,8.65,10.56,12.95,15.87.44.55.78,1.18,1.16,1.78.22-.14.43-.29.65-.43v-19.05c1.57-.22,3.39-1,3.39,1.79,0,7.53-.06,15.06-.13,22.59,0,.58-.34,1.15-.83,2.69Z"/>
      <path class="cls-1" d="m491.24,137.81c5.68,0,11.05-.04,16.42.06.56.01,1.1.92,1.66,1.41-.63.41-1.24,1.14-1.89,1.16-3.43.13-6.87.28-10.28.04-2.13-.15-2.44.62-2.41,2.42.07,6.2.02,6.2,6.14,6.21,1.25,0,2.54-.16,3.73.09.95.2,1.78.92,2.67,1.41-.93.46-1.84,1.25-2.79,1.31-2.99.17-6.01.06-9.33.06-.13,2.47-.41,4.71-.25,6.92.04.61,1.39,1.57,2.18,1.6,3.11.13,6.24-.18,9.34-.01.96.05,1.87,1.11,2.8,1.71-.93.46-1.84,1.29-2.79,1.32-4.36.16-8.73.19-13.09.04-.72-.02-2-1.16-2.01-1.8-.14-8-.09-16.01-.09-23.96Z"/>
      <path class="cls-1" d="m566.53,152.13h-14.65c0,2.95.12,5.9-.07,8.83-.07,1-.93,1.95-1.43,2.92-.57-.99-1.63-1.98-1.64-2.98-.14-7.71-.08-15.42-.08-23.16,2.82-1.08,3.66-.01,3.44,2.63-.19,2.15-.15,4.33-.22,6.49-.06,1.56.54,2.15,2.24,2.04,3.21-.19,6.45-.32,9.65-.06,2.4.2,2.94-.82,2.93-2.79-.02-2.77,0-5.53,0-8.4,2.18-.62,3.31-.4,3.27,2.09-.12,7.01-.03,14.02-.19,21.02-.02,1.04-1.01,2.05-1.56,3.08-.56-1.01-1.52-2-1.6-3.05-.23-2.83-.08-5.69-.08-8.68Z"/>
      <path class="cls-1" d="m756.85,149.15c3.49,0,6.6-.09,9.7.06.95.05,1.87.77,2.81,1.18-.99.53-1.95,1.45-2.96,1.51-3.19.2-6.4.07-9.79.07v8.41c3.98,0,7.79-.12,11.59.08,1.08.06,2.11,1.03,3.17,1.58-1.07.52-2.12,1.44-3.21,1.49-4.25.22-8.51.24-12.77.16-.71-.01-2-.94-2.01-1.46-.13-8.22-.09-16.45-.09-24.52,5.35,0,10.42-.07,15.49.07.77.02,1.51.98,2.27,1.51-.8.41-1.58,1.15-2.39,1.18-4.01.12-8.03.06-12.23.06.16,3.19.3,5.82.44,8.62Z"/>
      <path class="cls-1" d="m672.43,150.57c.26-7.65,5.77-13.21,12.9-13.03,6.62.17,12.08,6.57,11.75,13.79-.32,6.99-6.23,12.71-12.91,12.48-6.44-.22-11.97-6.46-11.74-13.24Zm21.33.2c.16-5.78-3.53-10.34-8.64-10.42-5.96-.09-8.83,3.51-9.49,10.02-.5,5.01,4.53,10.55,8.91,10.68,5.23.16,9.04-4.1,9.22-10.29Z"/>
      <path class="cls-1" d="m720.07,151.86c2.15-1.65,4.79-.81,7.16-.61.44.04.91,2.4.97,3.71.14,3.01.05,6.03.05,9.05l-1.14.17c-.62-1.07-1.25-2.15-1.94-3.35-.45.17-1.01.24-1.37.53-6.41,5.19-14.27,1.18-17.19-4.79-3.89-7.96.7-19.83,11.65-18.92,2.52.21,5.05,1.55,7.35,2.78,1.87,1,1.85,2.58-.12,3.97-.33-.16-.81-.25-1.02-.53-2.31-3-5.25-4.29-9.02-3.32-3.96,1.02-5.58,4.11-6.55,7.6-1.26,4.55,1,9.59,5.17,11.91,3.24,1.8,7.38,1.17,10.21-1.92.91-.99,1.01-2.7,1.48-4.08-1.11-.26-2.21-.54-3.33-.78-.76-.16-1.52-.28-2.28-.41-.02-.34-.05-.67-.07-1.01Z"/>
      <path class="cls-1" d="m637.64,151.22c.4,8.35-6.5,12.34-11.86,12.53-5.26.19-12.87-5.16-12.23-14.04.5-6.94,5.69-12.25,12.72-12.15,6.58.1,11.49,6,11.37,13.66Zm-2.87-1.03c.15-5.08-3.99-9.76-8.75-9.88-5.16-.13-9.32,4.17-9.5,9.84-.19,5.94,3.6,10.66,8.73,10.87,5.29.22,9.33-4.37,9.52-10.83Z"/>
      <path class="cls-1" d="m778.17,160.05c1.19-1.12,1.85-1.73,2.41-2.26,4,2.16,7.59,4.38,11.83,2.54,1.27-.55,3.02-1.97,3.01-2.98-.01-1.29-1.31-3.06-2.54-3.73-2.05-1.11-4.52-1.44-6.77-2.2-4.39-1.48-6.37-3.93-5.94-7.21.48-3.72,3.5-6.2,7.97-6.4,1.65-.08,3.44-.22,4.95.3,1.77.6,3.3,1.88,4.93,2.87-.19.41-.38.82-.58,1.23-.89-.24-1.77-.56-2.68-.72-2.43-.44-4.97-1.38-7.29-1.03-1.68.26-3.09,2.26-4.62,3.49,1.16,1.29,2.1,2.96,3.53,3.77,1.75,1,3.91,1.31,5.91,1.87,4.43,1.22,6.78,3.79,6.7,7.39-.07,3.22-2.11,5.45-6.45,6.47-4.94,1.17-9.32-.54-14.38-3.39Z"/>
      <path class="cls-1" d="m538,144.5c-1.75-1.28-3.08-2.63-4.7-3.36-3.69-1.67-8.31-.9-10.49,1.43-2.84,3.05-3.62,8.71-2.01,12.47,2.7,6.33,9.73,7.94,15.01,3.29.66-.58,1.9-.5,2.87-.72-.36.97-.46,2.2-1.13,2.87-3.96,4.02-10.68,4.31-15.45.81-4.86-3.57-6.72-10.59-4.28-16.1,2.54-5.72,7.88-8.47,14.25-7.34,3.42.61,5.99,3.31,5.92,6.64Z"/>
      <path class="cls-1" d="m482.64,137.7c.51,1.91.13,2.93-2.2,2.76-2.37-.17-4.76-.04-6.98-.04,0,6.96.06,13.6-.07,20.24-.02,1.05-.8,2.9-1.44,2.99-2.38.35-2.07-1.59-2.07-3.14.01-5.67-.1-11.35.06-17.01.07-2.3-.52-3.26-2.94-2.93-1.43.2-2.94.25-4.35.02-.72-.11-1.32-.99-1.98-1.52.7-.56,1.39-1.59,2.09-1.61,3.64-.07,7.28.16,10.92.22,2.9.05,5.8,0,8.96,0Z"/>
      <path class="cls-1" d="m648.23,137.59c2.74-.68,3.41.11,3.34,2.59-.21,6.77-.07,13.54-.07,20.21,3.85,0,7.68-.11,11.49.07.99.05,1.94,1,2.91,1.54-.98.5-1.93,1.36-2.93,1.42-4.25.26-8.51.35-12.76.3-.67,0-1.88-1.04-1.89-1.62-.13-8.12-.09-16.23-.09-24.51Z"/>
      <path class="cls-1" d="m738.87,137.49h3.14c0,7.38.09,14.64-.07,21.89-.04,1.52,1.31,4.44-1.65,4.35-2.55-.08-1.34-2.78-1.36-4.3-.11-7.18-.05-14.36-.05-21.94Z"/>
      <circle class="cls-1" cx="170.69" cy="52.91" r="52.61"/>
    </g>
  </g>
</svg>