<?xml version="1.0" encoding="UTF-8"?>
<svg id="Layer_2" data-name="Layer 2" xmlns="http://www.w3.org/2000/svg" viewBox="0 0 794.39 418.91">
  <defs>
    <style>
      .cls-1 {
        fill: #fff;
      }

      .cls-2 {
        fill: #878787;
      }
    </style>
  </defs>
  <g id="Layer_1-2" data-name="Layer 1">
    <g>
      <path class="cls-2" d="m646.57,276.01c47.51-1.29,76.43,31.67,75.98,71.25-.48,42.17-30.07,71.45-74.28,71.35-40.24-.09-68.27-29.77-71.12-65.16-3.84-47.7,33.99-78,69.43-77.45Zm-32.54,70.89c-1.2,20.3,16.31,37.06,35.52,36.79,20.01-.28,34.29-15.3,35.7-33.64,1.82-23.83-17.28-38.71-34.28-39.3-21.72-.75-38.54,18.45-36.93,36.15Z"/>
      <path class="cls-2" d="m399.14,360.06c2.8,9.87,2.22,19.71-1.19,29.22-4.48,12.51-14.55,19.4-26.15,24.6-8.97,4.02-18.45,4.45-27.98,4.41-11.03-.04-22.08-.21-32.98-2.35-2.93-.58-4.62-1.56-4.5-5.1.27-8.15.17-16.32.04-24.47-.04-2.71.52-3.53,3.35-2.58,12.2,4.11,24.84,4.82,37.54,3.97,4.46-.3,8.95-1.84,12.85-4.28,6.82-4.26,4.97-14.27-3.42-18.57-7.55-3.87-15.98-5.46-23.71-8.88-13.58-6-24.41-15.19-26.52-30.35-3.29-23.58,7.82-40.42,30.87-47.57,10.05-3.12,20.68-3.26,30.84-2.52,6.54.47,13.49,1.83,20.09,3.59,1.85.49,3.4,1.34,3.3,4.08-.27,7.48-.21,14.99-.04,22.48.07,3.2-1.39,3.8-3.94,3.01-10.28-3.21-20.88-3.03-31.4-2.63-4.89.19-9.75,1.64-12.57,6.61-2.01,3.53-1.33,6.51,1.13,9.37,3.1,3.59,7.11,5.57,11.6,6.96,10.45,3.22,21.13,5.97,29.92,13.02,5.64,4.51,10.38,9.67,12.16,16.94-.23.67.2.89.71,1.05Z"/>
      <path class="cls-2" d="m120.27,320.65c-10.14,9.3-13.12,21.31-10.51,34.04,2.99,14.59,12.46,24.44,27.18,28.16,12.27,3.1,24.12.59,35.4-4.58,3.47-1.59,4.6-1.25,4.52,2.74-.19,9.66-.19,19.32-.12,28.98.02,2.53-.78,3.54-3.31,4.46-13.61,4.93-27.93,5.46-41.58,3.13-27.29-4.66-47.56-19.66-57.01-46.63-4.89-13.96-4.99-28.43-1.28-42.77,4.63-17.94,14.68-32.05,30.7-41.63,11.15-6.67,23.25-10.09,36.27-10.58,11.28-.42,22.26,1,33.11,3.98,1.88.52,3.03,1.14,3.03,3.19,0,10.49,0,20.99-.01,31.48,0,2.62-1.06,2.44-3.12,1.51-10.61-4.83-21.97-5.38-33.36-5.14-3,.06-5.98,1.43-8.96,2.21-.65-.18-.93.2-1.1.74,0,0,.05-.06.05-.06-.74.16-1.65-.01-1.98.98-2.98.92-5.27,2.81-7.21,5.18-.31.12-.54.33-.68.63Z"/>
      <path class="cls-2" d="m540.14,283.01v34.86c-10.72-5.4-21.76-7.33-33.49-6.99-16.89.5-30.45,12.66-33.38,28.77-4.24,23.29,10.55,40.22,30.92,44.11,7.23,1.38,15.57,1.58,21.7-2.26,4.64-2.91,9.9-.91,14.25-5.37v33.83c-1.26.63-1.41,1.93-1.85,3.05-4.61,4.18-10.82,4.05-16.18,4.62-17.17,1.8-34.21,1.06-49.97-7.6-19.73-10.84-32.1-26.96-36-49.29-2.24-12.86-1.88-25.76,2.39-38,4.38-12.58,12.03-23.36,22.61-31.77,15.71-12.5,34.05-16.15,53.48-14.99,8.02.48,16.23,1.23,23.67,5,.08,1.17.85,1.71,1.85,2.05Z"/>
      <path class="cls-2" d="m190.03,108.42c0-30.14.44-60.29-.2-90.42-.29-13.54,14.12-23.22,26.99-14.94,5.93,3.82,7.59,9.59,7.59,16.12.02,46.79.01,93.59.01,140.38,0,12.82.02,25.64,0,38.47-.02,10.94-5.43,17.72-15.9,19.87-3.18.65-6.12-.52-8.93-1.92-6.88-3.41-9.72-8.84-9.65-16.64.25-30.31.1-60.61.1-90.92Z"/>
      <path class="cls-2" d="m598.35,213.11c-11.66,8.08-24.02,4.56-27.71-7.97-.5-1.7-.54-3.58-.54-5.38-.03-60.78.1-121.57-.17-182.35-.04-8.08,7.26-17.66,16.36-17.37,10.8.35,18.05,6.65,18.07,17.25.1,60.95.05,121.9.05,182.85,0,4.28-1.41,8.02-4.28,11.2-1.4-.22-1.95.41-1.78,1.77Z"/>
      <path class="cls-2" d="m259.37,347.17c0,21.49-.08,42.98.08,64.46.03,3.49-.89,4.54-4.42,4.43-8.82-.25-17.66-.18-26.49-.03-2.89.05-4.1-.52-4.09-3.79.1-43.48.1-86.95,0-130.43,0-3.09.92-3.98,3.96-3.91,8.99.18,18,.24,26.99-.02,3.52-.1,4.03,1.27,4.01,4.32-.11,21.65-.06,43.31-.06,64.96Z"/>
      <path class="cls-2" d="m664.96,123.98c0-13.83.45-27.67-.16-41.47-.42-9.6,8.66-17.84,16.73-17.51,10.51.43,17.83,6.99,17.88,17.61.14,27.48.12,54.97.01,82.46-.04,9.23-5.42,15.77-14.04,17.79-7.29,1.72-14.82-1.98-19.02-9.23-1.59-2.74-1.38-5.73-1.4-8.67-.06-13.66-.02-27.32-.02-40.98Z"/>
      <path class="cls-2" d="m95.03,123.89c0-13.66.33-27.33-.11-40.98-.33-10.53,7.22-17.79,17.65-18.4,8.91-.52,16.79,8.43,16.82,18.53.08,27.32.07,54.64,0,81.96-.02,8.93-5.1,15.44-13.47,17.72-7.21,1.96-14.89-1.59-19.24-8.74-1.75-2.88-1.61-6.01-1.63-9.12-.06-13.66-.02-27.32-.02-40.98Z"/>
      <path class="cls-2" d="m285.02,124.09c0-13.81.45-27.64-.15-41.42-.43-9.88,8.7-17.91,16.56-17.66,10.35.34,17.89,7.1,17.94,17.5.13,27.62.1,55.24.01,82.86-.03,8.76-5.41,15.34-13.76,17.44-6.91,1.74-14.58-1.9-18.88-8.72-1.81-2.87-1.69-5.97-1.7-9.07-.06-13.64-.03-27.29-.02-40.93Z"/>
      <path class="cls-2" d="m475.05,124.12c0-13.99-.06-27.98.02-41.97.06-9.76,6.87-16.92,16-17.05,10.28-.15,18.1,6.61,18.18,16.63.21,28.14.19,56.29,0,84.43-.07,9.91-8,17.03-17.97,16.92-9.24-.11-16.14-7.21-16.21-16.99-.1-13.99-.03-27.98-.03-41.97Z"/>
      <path class="cls-2" d="m34.42,149.69c-.74,6.27,1.35,14.14-1.17,21.77-2.7,8.16-10.62,12.9-19.46,11.55C7.26,182.01-.18,174.4,0,167.18c.31-12.47-.07-24.96.07-37.43.12-10.3,5.97-16.13,14.92-16.77,13.67-.98,19.02,8.24,19.37,16.79.25,6.15.05,12.31.05,19.92Z"/>
      <path class="cls-2" d="m759.2,126.92c4.97-13.05,15.63-17.85,26.6-11.85,5.54,3.03,8.32,8.03,8.42,14.19.21,12.32.26,24.64,0,36.96-.2,9.91-8.04,16.99-18.01,16.87-9.23-.11-16.09-7.22-16.2-16.99-.14-11.98-.12-23.97-.17-35.95.21-1.16.71-2.37-.65-3.21Z"/>
      <path class="cls-2" d="m414.3,149.42c-.78,6.15,1.39,14.02-1.09,21.65-2.72,8.39-10.95,13.58-19.57,11.9-5.75-1.13-13.9-7.1-13.67-16.42.3-12.3-.02-24.62.09-36.92.08-9.55,5.99-16.01,13.99-16.61,14.83-1.1,19.64,7.69,20.17,16.38.38,6.13.07,12.3.07,20.03Z"/>
      <path class="cls-2" d="m759.2,126.92c1.36.84.86,2.05.65,3.21-2.7-.57-.98-2.03-.65-3.21Z"/>
      <path class="cls-2" d="m598.35,213.11c-.18-1.36.37-1.99,1.78-1.77-.07,1.12-.71,1.65-1.78,1.77Z"/>
      <path class="cls-1" d="m614.03,346.9c-1.61-17.7,15.21-36.9,36.93-36.15,17,.59,36.11,15.47,34.28,39.3-1.4,18.34-15.69,33.36-35.7,33.64-19.21.27-36.71-16.49-35.52-36.79Z"/>
    </g>
  </g>
</svg>