<?xml version="1.0" encoding="UTF-8"?>
<svg id="Layer_2" data-name="Layer 2" xmlns="http://www.w3.org/2000/svg" viewBox="0 0 646.44 240.74">
  <defs>
    <style>
      .cls-1 {
        fill: #878787;
      }
    </style>
  </defs>
  <g id="Layer_1-2" data-name="Layer 1">
    <g>
      <path class="cls-1" d="m214.9,240.45h-64.07c0-11.2-.11-22.15.02-33.1.38-32.66,1.02-65.31,1.2-97.97.05-9.3-.33-18.75-2.01-27.86-.94-5.07-4.42-9.97-7.68-14.25-13.56-17.8-33-21.89-52.8-11.5-9.5,4.99-17.16,12.02-22.81,21.15-3.57,5.76-5.45,11.95-5.5,18.88-.3,45.66-.8,91.31-1.22,136.97-.02,2.15,0,4.29,0,7.15H0V6.91h61.76v25.2c2.05-1.61,3.18-2.44,4.24-3.34,4.33-3.65,8.59-7.38,12.96-10.99C96.37,3.4,116.41-2.06,138.66.68c9.06,1.12,18.17,2.34,27.01,4.55,14.52,3.63,25.58,12.33,33.52,25.1,10.39,16.71,15.63,35.06,15.79,54.5.41,50.82.17,101.65.18,152.48,0,.96-.15,1.92-.25,3.14Z"/>
      <path class="cls-1" d="m562.34,240.35h-30.93c-5.17,0-10.35-.28-15.49.09-4.21.3-6.55-1.24-8.74-4.83-9.72-15.91-19.78-31.62-29.73-47.39-.95-1.5-1.99-2.95-3.42-5.06-1.34,2.04-2.33,3.49-3.26,4.97-10.01,15.93-20.09,31.82-29.96,47.83-1.88,3.05-3.97,4.31-7.6,4.26-15.14-.19-30.28-.08-46.54-.08,1.42-2.39,2.33-4.03,3.34-5.6,18.75-29.12,37.46-58.26,56.33-87.29,1.99-3.06,2.36-5.34.14-8.44-3.38-4.71-6.28-9.76-9.75-15.26-1.54,2.33-2.74,4.07-3.87,5.87-22.32,35.52-44.68,71.03-66.89,106.63-2.08,3.34-4.29,4.77-8.34,4.69-13.49-.27-26.99-.1-40.49-.11-1.44,0-2.88-.12-5-.22,1.2-2.01,2.06-3.56,3.01-5.05,31.32-48.75,62.6-97.52,94.06-146.18,2.37-3.67,2.18-6.19-.1-9.75-15.24-23.85-30.25-47.85-45.32-71.8-.96-1.53-1.86-3.09-3.12-5.2,1.89-.12,3.27-.29,4.66-.29,13,.03,25.99.24,38.99.03,3.68-.06,5.64,1.27,7.51,4.26,7.14,11.44,14.54,22.72,21.86,34.04.96,1.49,2.01,2.92,3.43,4.97,4.46-6.92,8.6-13.32,12.73-19.73,4.33-6.72,8.57-13.49,13.04-20.12.91-1.35,2.65-3.02,4.03-3.05,14.93-.22,29.86-.14,45.69-.14-4.39,7.02-8.31,13.33-12.26,19.61-12.05,19.17-24.04,38.38-36.22,57.47-1.98,3.1-2.18,5.39.06,8.43,3.44,4.67,6.39,9.7,10.06,15.38,1.42-2.03,2.55-3.53,3.57-5.1,19.66-30.51,39.36-61,58.89-91.58,2.01-3.14,4.03-4.56,7.92-4.42,11.98.43,23.98.39,35.98.56,1.78.02,3.55.17,6.21.31-1.43,2.35-2.42,4.01-3.44,5.64-26.55,42.3-53,84.67-79.78,126.83-3.21,5.05-3.47,8.42-.06,13.58,18.72,28.34,36.97,56.99,55.37,85.54.97,1.51,1.86,3.08,3.44,5.7Z"/>
      <path class="cls-1" d="m304.21,240.16h-44.3V66.85h44.3v173.3Z"/>
      <path class="cls-1" d="m600.74,240.15V66.85h44.26v173.29h-44.26Z"/>
      <path class="cls-1" d="m259.45,45.5V3.37h46.08v42.13h-46.08Z"/>
      <path class="cls-1" d="m600.42,45.73V3.44h46.02v42.3h-46.02Z"/>
    </g>
  </g>
</svg>