<?xml version="1.0" encoding="UTF-8"?>
<svg id="Layer_2" data-name="Layer 2" xmlns="http://www.w3.org/2000/svg" viewBox="0 0 414.76 380.07">
  <defs>
    <style>
      .cls-1 {
        fill: #878787;
      }
    </style>
  </defs>
  <g id="Layer_1-2" data-name="Layer 1">
    <g>
      <path class="cls-1" d="m205.65,154.84c-11.39,4.62-22.6,9.73-34.21,13.72-13.16,4.52-26.56,8.44-40.07,11.78-6.32,1.56-13.17,1.85-19.71,1.48-14.63-.82-25.53-11.47-27.1-25.93-1.12-10.33.09-20.43,2.85-30.54,11.44-41.96,38.31-72.84,71.33-99.29,16.81-13.46,36.13-21.74,57.37-25.3,9.21-1.55,18.39-.77,27.21,2.59,9.16,3.49,12.04,9.15,6.81,17.35-7.22,11.33-15.5,22.06-24.01,32.5-11.79,14.47-24.65,28.09-36.19,42.74-6.73,8.55-12.9,17.6-12.59,29.79.33,12.9,12.93,25.49,24.56,27.61,1.21.22,2.41.47,3.62.7.04.26.08.53.12.79Z"/>
      <path class="cls-1" d="m208.97,93.8c9.66-4.07,18.29-7.92,27.08-11.35,9.23-3.61,18.42-7.61,27.99-10.04,11.89-3.02,24.1-6.03,36.26-6.49,17.83-.68,28.55,8.7,31.42,26.96,1.87,11.86-1.08,23.08-4.37,34.24-7.03,23.86-20.67,43.98-36.36,62.88-13.41,16.16-29.03,29.95-47.19,40.52-18.05,10.51-37.02,18.94-58.76,16.59-5.31-.58-10.7-2.12-15.62-4.22-5.29-2.26-7.08-6.49-4.68-11.72,3.15-6.84,6.66-13.79,11.38-19.59,14.75-18.16,30.31-35.68,45.2-53.74,5.16-6.26,10.27-12.91,13.67-20.18,9.38-20.05.1-37.79-21.55-42.79-1.11-.26-2.22-.52-4.48-1.05Z"/>
      <path class="cls-1" d="m0,379.15v-95.02c15.49,0,30.72-.27,45.92.11,8.25.2,16.4,1.95,23.14,7.18,2.78,2.15,5.64,4.74,7.23,7.77,11.11,21.15,10.93,42.58.76,64.05-4.85,10.24-14.47,13.05-24.36,14.83-5.75,1.03-11.74.96-17.63,1.03-11.63.14-23.27.04-35.07.04Zm20.29-16.63c9.78-.28,19.3,1.62,28.48-1.73,4.62-1.69,8.65-4.39,10.46-9.53,4.07-11.54,5.16-23.21,1.74-35.06-2.61-9.02-8.13-15.71-19.93-15.62-5.62.04-11.25.23-16.84-.09-3.15-.18-3.97.8-3.94,3.79.11,14.49.05,28.99.04,43.48,0,4.72,0,9.43,0,14.75Z"/>
      <path class="cls-1" d="m370.84,313.5c5.93-9.1,11.69-18.12,17.69-26.98.93-1.37,2.96-2.74,4.53-2.81,6.88-.31,13.78-.13,21.69-.13-3.52,5.08-6.67,9.57-9.76,14.1-6.8,9.95-13.53,19.95-20.38,29.87-2.24,3.24-1.06,5.82.85,8.62,9.29,13.64,18.49,27.33,27.72,41.01.23.35.37.76.94,1.98-3.88,0-7.35,0-10.82,0-3.31,0-6.63-.12-9.94.04-2.46.12-3.6-.8-4.93-3-5.5-9.05-11.43-17.82-17.59-27.29-1.26,1.65-2.44,2.98-3.38,4.45-5.08,7.97-10.08,16-15.2,23.96-.52.81-1.65,1.71-2.51,1.73-7.44.14-14.88.08-22.94.08,5.01-7.51,9.66-14.49,14.3-21.47,5.01-7.52,9.96-15.08,15.04-22.55,2.05-3.02,1.67-5.18-.53-8.32-9.87-14.06-19.26-28.46-29.11-43.16,8.19,0,15.85-.17,23.48.17,1.31.06,2.81,2.11,3.74,3.55,5.34,8.32,10.53,16.74,15.8,25.12.2.31.61.5,1.3,1.04Z"/>
      <path class="cls-1" d="m159.75,339.8c-12.72,0-24.51-.04-36.31.02-4.56.03-5.14.95-3.94,5.55,3.1,11.92,11.4,18.15,23.98,17.98,6.63-.09,13.27-.02,19.88-.41,3.38-.2,4.32,1.02,4.18,4.11-.16,3.83-.04,7.68-.04,12.08-15.54-.37-31.1,1.99-45.92-3.43-13.02-4.76-20.76-14.6-23.16-28.23-2.11-11.97-2.18-24.03.82-35.87,3.84-15.17,15.48-25.61,31.04-27,11.44-1.02,23-.81,34.51-.96.92-.01,2.62,1.39,2.67,2.22.26,4.53.13,9.08.13,13.97-8.67,0-17.15-.43-25.57.17-4.7.33-9.71,1.59-13.83,3.82-6.82,3.69-8.07,10.91-9.52,18.41,2.31.15,4.12.35,5.94.36,10.52.05,21.04.15,31.56.02,2.63-.03,3.68.68,3.62,3.32-.11,4.54-.03,9.08-.03,13.87Z"/>
      <path class="cls-1" d="m203.47,340.81c3.11,0,5.66-.06,8.21.02,2.47.08,3.76-.72,3.6-3.47-.24-4.01-.36-8.03-.28-12.05.06-3.23-1.45-3.91-4.33-3.54-2.09.27-4.25.05-7.43.05,1.05-3.93,1.94-7.41,2.91-10.88,4.35-15.49,14.56-24.74,30.57-26.23,12.29-1.14,24.73-.8,37.1-.94.89,0,1.81,1.51,2.66,2.37.14.14.03.55.01.84-.75,14.31,3.29,11.81-12.06,12.61-3.73.2-7.51.18-11.23-.12-20.39-1.64-24.83,7.23-27.92,23.26-2.06,10.68-.07,20.95,4.2,30.66,3.16,7.19,9.84,9.67,17.38,9.78,7.78.11,15.56.03,23.34.03,1.86,0,3.71,0,5.89,0v16.84c-14.65-1-29.21-1.12-43.47-3.19-14.84-2.16-22.87-12.75-26.89-26.56-.87-2.98-1.45-6.04-2.26-9.5Z"/>
      <path class="cls-1" d="m313.11,379.12c-6.18,0-12.05.16-17.89-.19-.83-.05-2.14-2.6-2.16-4-.18-12.91-.13-25.82-.14-38.73-.01-15.64-.02-31.27-.02-46.91,0-1.7,0-3.39,0-5.45h20.21v95.27Z"/>
    </g>
  </g>
</svg>