<?xml version="1.0" encoding="UTF-8"?>
<svg id="Layer_2" data-name="Layer 2" xmlns="http://www.w3.org/2000/svg" viewBox="0 0 667.38 352.92">
  <defs>
    <style>
      .cls-1 {
        fill: #878787;
      }
    </style>
  </defs>
  <g id="Layer_1-2" data-name="Layer 1">
    <g>
      <path class="cls-1" d="m414.76,352.51v-39.93c4.65,0,9.15.18,13.62-.04,8.86-.42,17.38-2.25,25.21-6.66,8.41-4.74,12.76-11.98,13.04-21.56.3-10.34-2.55-20.1-5.92-29.73-1.33-3.79-2.61-7.59-3.98-11.37-5.41-14.92-11.8-29.44-17.56-44.22-3.8-9.75-7.79-19.43-11.73-29.13-4.5-11.07-9.13-22.08-13.53-33.19-1.65-4.16-3.2-8.34-5.13-12.4-2.06-4.34-5.81-5.87-9.96-5.93-16.52-.2-33.04-.07-49.57-.06-.16,0-.33.1-.76.23v157.38h-45.53V118.25h-39.16v-37.1c.81-.6,1.62-.34,2.4-.34,11.4,0,22.8-.06,34.19.05,2.18.02,3.06-.64,2.95-2.8-.32-6.44.77-12.84,2.35-18.92,6.03-23.33,17.79-42.65,40.64-53.2,11.71-5.4,24.11-6.82,36.93-5.45,6.09.65,12.11,1.61,18.07,2.89,4.48.96,8.85,2.46,13.59,3.81-4.42,11.4-8.8,22.67-13.26,34.18-4.34-1.16-8.49-2.5-12.75-3.36-7.1-1.43-14.25-2.48-21.19.91-9.4,4.6-14.96,12.39-18.2,22.02-2.13,6.34-2.36,12.91-1.84,19.47,1.37.6,2.63.37,3.84.37,22.71.02,45.42.06,68.12-.01,4.96-.01,9.9.45,14.27,2.63,5.61,2.79,9.54,7.31,10.57,13.82.07.43-.04.96.18,1.27,4.18,5.98,5.6,13.17,8.54,19.7,1.15,2.55,1.71,5.56,2.9,8.01,3.08,6.31,5.19,12.97,7.91,19.39,4.42,10.46,8.59,21.03,12.59,31.66,4.71,12.51,9.87,24.84,14.76,37.34,1.14.44,1.44-.41,1.73-1.28,2.3-6.85,4.63-13.7,7.13-20.46,3.86-10.39,7.36-20.91,11.32-31.27,1.73-4.54,3.1-9.25,4.92-13.78,2-4.98,3.32-10.17,5.5-15.13,1.98-4.5,2.97-9.49,4.98-14.54h-31.09v-37.14h90.83c-1.38,5.64-3.72,10.81-5.73,16.06-2.77,7.25-5.23,14.63-8.19,21.78-3.05,7.36-5.59,14.9-8.5,22.3-1.83,4.65-3.45,9.44-5.38,14.05-3.7,8.86-6.51,18.04-9.95,26.99-3.98,10.35-7.61,20.85-11.8,31.12-1.14,2.8-2.75,5.74-3.45,8.46-1.56,6.03-4.23,11.59-6.18,17.42-2.59,7.72-5.71,15.27-8.61,22.89-4.63,12.16-9.25,24.32-13.91,36.47-3.68,9.61-7.15,19.31-13.07,27.87-5.09,7.36-11.14,13.74-19.08,18.01-8.06,4.34-16.62,6.71-25.85,7.63-9.69.96-19.32.69-28.99.82-1.04.01-2.11.19-3.26-.36Z"/>
      <path class="cls-1" d="m125.96,91.11c-4.23,11.52-8.43,22.96-12.72,34.65-4.77-3.44-9.52-6.33-14.83-8.24-5.99-2.16-12.2-2.97-18.5-3.61-3.42-.35-6.83-.68-10.24-.45-4.69.31-9.35.65-13.71,2.98-8.89,4.75-12.59,18.62-3.18,27.37,3.6,3.35,7.86,5.64,12.15,7.93,8.83,4.71,18.26,7.99,27.44,11.87,10.26,4.34,20.02,9.51,28.18,17.21,8.14,7.7,13.36,16.94,15.44,28.17,1.46,7.92,1.78,15.67.43,23.54-2.71,15.77-11.42,27.4-24.91,35.59-7.46,4.53-15.59,7.3-24.17,9.2-12.88,2.85-25.8,2.48-38.81,2.11-7.64-.22-15.01-1.74-22.07-4.09-8.73-2.91-16.99-7.12-25.39-11.76,5.33-11.9,10.65-23.76,16.08-35.89,3.97,2.94,7.82,5.56,11.94,7.73,5.3,2.8,10.81,5.01,16.69,6.35,6.68,1.52,13.4,2.25,20.23,2.02,4.97-.17,9.8-1,14.37-3.09,6.24-2.86,8.95-7.7,9.44-14.52.9-12.67-6.02-20.12-16.12-25.74-7.33-4.08-14.97-7.45-22.66-10.79-13.93-6.05-27.26-13.18-37.64-24.76-7.34-8.19-12.05-17.76-13.09-28.51-1.58-16.39,2.87-31.05,15.82-42.18,8.49-7.3,18.32-11.77,29.3-14.28,7.85-1.79,15.75-2.52,23.67-2.57,10.04-.07,20.12.88,29.85,3.46,8.18,2.17,16.35,4.56,23.97,8.42,1,.5,1.91,1.18,3.03,1.89Z"/>
      <path class="cls-1" d="m188,118.09c-1.51,0-2.55,0-3.59,0-8.66,0-17.31-.04-25.97.02-1.69.01-2.32-.47-2.31-2.24.1-10.94.13-21.89.11-32.84,0-1.47.14-2.27,1.94-2.27,24.91.05,49.82.04,74.73.04.17,0,.34.08.75.19v194.92h-45.66V118.09Z"/>
      <path class="cls-1" d="m614.8.81h52.58v52.24c-.68.69-1.6.45-2.45.45-15.98.01-31.96-.01-47.93.03-1.57,0-2.44-.19-2.43-2.1.06-16.5.05-33,.06-49.49,0-.26.08-.52.18-1.13Z"/>
    </g>
  </g>
</svg>